<svg width="139" height="50" viewBox="0 0 139 50" fill="none" xmlns="http://www.w3.org/2000/svg">
<g clip-path="url(#clip0_109_141)">
<path d="M19.912 10.784L15.31 39.082H8.698L10.378 28.864H3.256L1.61 39.082H-5L-0.361 10.784H6.214L4.242 22.732H11.364L13.338 10.784H19.912ZM33.473 39.082L33.693 32.912H27.593L25.803 39.082H18.826L28.214 10.784H40.267L40.414 39.082H33.473ZM31.976 17.662L29.091 27.645H33.876L34.277 17.663L31.976 17.662ZM68.783 10.784L64.18 39.082H57.568L52.967 23.598L50.483 39.083H43.87L48.509 10.784H55.303L59.833 25.248L62.206 10.784H68.783ZM84.208 10.784C87.398 10.784 89.675 11.649 91.038 13.378C92.037 14.688 92.535 16.326 92.535 18.291C92.535 18.999 92.475 19.745 92.354 20.531L90.929 29.296C90.442 32.256 89.248 34.628 87.349 36.41C85.449 38.192 82.99 39.082 79.969 39.082H69.34L73.98 10.784H84.208ZM81.906 16.916H79.532L76.939 32.95H80.409C81.553 32.95 82.442 32.622 83.075 31.968C83.733 31.286 84.183 30.186 84.425 28.667L85.486 22.221C85.578 21.701 85.627 21.175 85.632 20.648C85.632 18.158 84.391 16.916 81.906 16.916ZM112.112 39.082H93.775L98.416 10.784H116.753L115.73 16.916H103.968L103.128 22.222H112.844L111.822 28.352H102.105L101.375 32.951H113.137L112.112 39.082ZM132.977 39.082H116.32L120.96 10.784H127.535L123.919 32.951H134L132.977 39.082ZM68.471 44.118H132.014L130.029 50H66.486L68.471 44.118ZM1.95 0H71.45L69.464 5.882H-0.0359998L1.95 0Z" fill="#9C9C9C"/>
</g>
<defs>
<clipPath id="clip0_109_141">
<rect width="139" height="50" fill="white"/>
</clipPath>
</defs>
</svg>
