<svg width="196" height="34" viewBox="0 0 196 34" fill="none" xmlns="http://www.w3.org/2000/svg">
<g clip-path="url(#clip0_109_154)">
<path d="M13.644 32.9551C12.4706 32.9866 11.3082 32.7221 10.264 32.1861C9.22539 31.6538 8.33953 30.8657 7.69 29.8961C5.64487 31.7746 2.99528 32.8596 0.22 32.9551C-4.767 32.9551 -7.47 29.4911 -6.557 24.5251C-5.863 20.7911 -2.758 17.0491 -1.89 14.0451C-3.57 13.0371 -6.064 12.3351 -7.233 14.3951L-8 13.9361C-7.388 11.6781 -5.909 10.1761 -3.772 10.1761C-1.635 10.1761 -0.0549994 11.4261 1.982 10.2751H3.607C2.74 14.7731 0.548 18.3711 -0.621 24.6691C-1.333 28.5291 -0.00899982 30.2831 2.229 30.2831C3.88223 30.0798 5.40302 29.2758 6.502 28.0241C5.60952 25.8277 5.15958 23.4768 5.178 21.1061C5.178 15.6361 7.726 9.87009 12 9.87009C14.192 9.87009 15.817 11.3721 15.817 14.9351C15.817 18.4971 13.626 24.0121 10.831 27.4751C10.982 28.3001 11.421 29.0471 12.071 29.5881C12.721 30.1281 13.542 30.4281 14.393 30.4361C18.466 30.4361 21.315 24.4161 21.315 18.8481C21.315 13.2801 18.868 13.5311 19.078 11.6511C19.0969 11.4162 19.162 11.1873 19.2696 10.9776C19.3772 10.7679 19.5252 10.5815 19.705 10.4291C20.069 10.1191 20.543 9.96409 21.023 9.99609C22.293 9.99609 23.963 11.5791 23.963 18.0031C23.963 26.1891 19.544 32.9551 13.644 32.9551ZM12.722 12.6951C11.452 12.6951 10.228 17.3101 10.073 22.0781C10.0137 23.0977 10.0321 24.1203 10.128 25.1371C12.0432 22.0182 13.2119 18.499 13.543 14.8541C13.534 13.2341 13.233 12.6941 12.721 12.6941L12.722 12.6951ZM32.329 32.7481C31.7964 32.8023 31.2584 32.7406 30.752 32.5671C30.2475 32.3947 29.7868 32.1141 29.402 31.7451C29.0197 31.3781 28.7233 30.9311 28.534 30.4361C28.3451 29.9432 28.2686 29.4143 28.31 28.8881C28.31 26.6841 31.215 15.6991 31.215 13.8911C31.215 13.0371 31.014 12.5331 30.247 12.5331C29.3912 12.6704 28.5942 13.0548 27.954 13.6391V12.0831C29.2835 10.877 30.9997 10.1849 32.794 10.1311C33.3299 10.0834 33.8698 10.1516 34.377 10.3311C34.883 10.5111 35.343 10.7961 35.726 11.1691C36.108 11.5411 36.404 11.9911 36.592 12.4891C36.779 12.9851 36.855 13.5161 36.812 14.0441C36.812 16.2481 33.909 27.1881 33.909 28.9871C33.909 29.8421 34.109 30.3461 34.877 30.3461C35.7212 30.2057 36.5126 29.8422 37.169 29.2931V30.7951C35.8445 32.0093 34.1253 32.7031 32.329 32.7481ZM35.89 0.999089C36.288 0.987089 36.684 1.05909 37.051 1.21309C37.417 1.36709 37.746 1.59709 38.012 1.88809C38.279 2.17687 38.4787 2.52128 38.5967 2.89651C38.7146 3.27175 38.7478 3.66846 38.694 4.05809C38.5958 4.88999 38.1972 5.6574 37.573 6.21609C36.9435 6.77989 36.1329 7.09953 35.288 7.11709C34.8905 7.12968 34.4949 7.0567 34.128 6.90309C33.7623 6.75031 33.4341 6.52002 33.166 6.22809C32.899 5.93931 32.6993 5.5949 32.5813 5.21967C32.4634 4.84443 32.4302 4.44772 32.484 4.05809C32.5823 3.22621 32.9809 2.45884 33.605 1.90009C34.2347 1.33673 35.0453 1.01646 35.89 0.999089ZM47.196 28.0341C46.941 29.3921 47.096 30.3371 48.064 30.3371C48.9112 30.2067 49.7051 29.8419 50.356 29.2841L50.447 30.7951C49.1176 32.0015 47.4014 32.694 45.607 32.7481C42.447 32.7481 41.224 30.4901 41.69 27.6831L44.795 10.2751C45.827 4.46309 45.47 3.69809 42.31 3.69809L42.511 2.29509L52.036 1.05309L47.196 28.0341ZM73.982 27.9881C73.726 29.3471 73.826 30.3461 74.849 30.3461C75.6981 30.1874 76.4896 29.8053 77.142 29.2391V30.7951C75.8212 32.0151 74.0996 32.7097 72.302 32.7481C71.3927 32.814 70.4912 32.5412 69.771 31.9821C69.0565 31.4285 68.5772 30.6257 68.429 29.7341C67.6625 30.7326 66.6786 31.5434 65.552 32.1051C64.4197 32.6705 63.1745 32.9733 61.909 32.9911C55.854 32.9911 53.306 27.7281 54.475 21.4031C55.644 15.0791 61.095 9.91509 67.26 9.91509C68.7175 9.88456 70.1591 10.2216 71.452 10.8951L71.607 10.0951C72.813 3.90509 72.256 3.69809 69.096 3.69809L69.251 2.29509L78.821 1.05309L73.981 27.9891L73.982 27.9881ZM67.415 12.1821C63.899 12.1821 61.562 16.2931 60.639 21.3581C59.671 26.6751 60.283 30.3551 63.589 30.3551C65.826 30.3551 68.374 27.6551 69.141 23.5351L71.023 13.1001C69.9348 12.4506 68.6813 12.1317 67.415 12.1821ZM90.073 32.9991C82.995 32.9991 81.059 27.9791 81.927 23.1661L84.237 10.2751C85.306 4.45509 84.95 3.65309 81.79 3.65309L81.99 2.25009L91.543 1.05309L89.607 11.9841C91.1008 10.708 92.9861 9.98112 94.95 9.92409C101.114 9.92409 104.009 15.0881 102.895 21.4121C101.781 27.7371 96.11 32.9991 90.073 32.9991ZM93.379 12.3081C92.3523 12.3282 91.3576 12.6687 90.534 13.2821C89.7166 13.8907 89.1139 14.7434 88.813 15.7171L87.388 23.8141C86.52 28.6271 88.256 30.5881 90.448 30.5881C93.653 30.5881 95.644 27.0801 96.712 21.3131C97.662 16.1491 96.795 12.3351 93.37 12.3351L93.379 12.3081ZM112.548 24.3271C112.548 28.1871 114.429 30.2471 118.027 30.2471C119.854 30.2471 122.511 28.9971 124.192 27.3411L124.904 28.9421C123.693 30.2051 122.242 31.2141 120.637 31.9101C119.025 32.6089 117.291 32.9821 115.534 33.0081C110.192 33.0081 106.575 29.0951 106.575 23.7781C106.575 15.9061 113.196 9.93309 119.562 9.93309C123.434 9.93309 125.616 12.0381 125.616 14.4941C125.571 18.3081 121.9 22.5911 112.548 24.3271ZM119.114 12.2361C116.21 12.2361 113.416 16.4011 112.648 22.3661C118.502 20.9621 120.995 17.0491 121.05 14.5391C121.041 13.1361 120.374 12.2361 119.105 12.2361H119.114ZM146.393 32.7481C145.484 32.8139 144.582 32.5411 143.862 31.9821C143.148 31.4284 142.669 30.6256 142.521 29.7341C141.783 30.7322 140.822 31.5446 139.715 32.1071C138.603 32.6731 137.376 32.9753 136.128 32.9901C130.174 32.9901 127.626 27.7281 128.822 21.4031C130.018 15.0791 135.379 9.92309 141.562 9.92309C142.872 9.91646 144.17 10.1739 145.379 10.6801H151.187L148.073 27.9881C147.817 29.3471 147.918 30.3461 148.941 30.3461C149.79 30.1872 150.581 29.8051 151.233 29.2391V30.7951C149.912 32.015 148.191 32.7096 146.393 32.7481ZM141.708 12.1821C138.292 12.1821 135.9 16.2931 134.986 21.3581C134.018 26.6751 134.685 30.3551 137.726 30.3551C140.064 30.3551 142.566 27.5481 143.279 23.5351L145.16 13.1001C144.133 12.4506 142.931 12.1303 141.717 12.1821H141.708ZM169.005 15.8431C167.626 15.8431 167.269 14.7911 166.868 13.6841C166.731 13.1245 166.402 12.6306 165.939 12.2881C165.472 11.9427 164.9 11.7686 164.32 11.7951C163.566 11.7552 162.824 11.9952 162.237 12.4691C161.654 12.9382 161.27 13.6099 161.16 14.3501C161.005 15.7091 162.027 16.8601 163.963 18.5151L166.557 20.6201C167.521 21.3379 168.269 22.3064 168.721 23.4201C169.17 24.5301 169.303 25.7401 169.105 26.9181C168.447 30.6781 165.288 32.9901 161.059 32.9901C155.963 32.9901 152.712 30.0301 153.068 28.0241C153.151 27.4971 153.421 27.0141 153.831 26.6661C154.241 26.3161 154.764 26.1221 155.306 26.1171C156.63 26.1171 157.132 27.1161 157.543 28.4201C157.807 29.1701 158.314 29.8121 158.986 30.2481C159.66 30.6844 160.459 30.8891 161.26 30.8311C162.052 30.8686 162.829 30.613 163.444 30.1131C164.053 29.6174 164.454 28.9106 164.566 28.1331C164.767 26.3331 163.653 25.2271 161.562 23.3641L159.014 21.1601C158.118 20.4868 157.418 19.5869 156.986 18.5531C156.556 17.5244 156.411 16.3991 156.566 15.2951C157.023 12.8841 159.306 9.89709 164.557 9.89709C168.63 9.89709 171.178 12.1551 170.95 13.9631C170.924 14.4618 170.71 14.932 170.35 15.2781C169.99 15.6261 169.509 15.8281 169.005 15.8431ZM187.644 12.6951H182.703L180.311 26.0271C179.799 28.7891 180.21 30.0401 181.735 30.0401C182.548 30.0401 183.826 29.5901 185.653 27.7371L185.753 29.6891C184.923 30.6568 183.895 31.4344 182.738 31.9691C181.576 32.5068 180.312 32.7905 179.032 32.8011C175.571 32.8011 173.836 30.3911 174.658 25.9281L177.05 12.6951H173.187L173.489 10.6351H177.388L178.411 4.67009H184.11L183.041 10.6341H187.982L187.644 12.6951Z" fill="#9C9C9C"/>
</g>
<defs>
<clipPath id="clip0_109_154">
<rect width="196" height="34" fill="white"/>
</clipPath>
</defs>
</svg>
